<mxfile host="app.diagrams.net" modified="2023-05-31T12:00:04.644Z" agent="Mozilla/5.0 (Windows NT 10.0; Win64; x64; rv:109.0) Gecko/20100101 Firefox/110.0" version="21.3.4" etag="flS63Uxhl5x5UgHa9ndJ" type="github">
  <diagram name="Page-1" id="m3T_XPjCJ76wTwhm2n7H">
    <mxGraphModel>
      <root>
        <mxCell id="0" />
        <mxCell id="1" parent="0" />
      </root>
    </mxGraphModel>
  </diagram>
</mxfile>
